<svg width="64" height="64" viewBox="0 0 64 64" fill="none" xmlns="http://www.w3.org/2000/svg">
<mask id="mask0_10502_573" style="mask-type:alpha" maskUnits="userSpaceOnUse" x="0" y="0" width="64" height="64">
<rect width="64" height="64" fill="#383838"/>
</mask>
<g mask="url(#mask0_10502_573)">
<path d="M52.4212 6.96274C51.8799 6.11982 51.0891 6.09561 50.188 6.06803C50.0859 6.0649 49.9824 6.06173 49.8776 6.05732C49.7979 6.05359 49.7099 6.05503 49.6179 6.05653C49.2525 6.0625 48.825 6.06948 48.6096 5.75724C48.3599 5.39523 48.3836 4.69563 48.4032 4.11809C48.4094 3.9356 48.4151 3.76517 48.4117 3.62156C48.3766 2.27993 48.3034 0.854776 47.7941 0.378349C47.4101 0.0208926 46.2611 0.0704133 45.2015 0.116083C44.858 0.130888 44.5239 0.145289 44.2282 0.145289H21.674C21.2199 0.145289 20.7439 0.107688 20.2761 0.0707432C19.3648 -0.00124545 18.485 -0.070743 17.8602 0.145289C16.9534 0.460344 16.892 2.11589 16.8342 3.67484L16.8311 3.75872C16.7826 5.04569 16.4689 6.03876 15.4294 5.93873C14.2204 5.82427 13.0173 5.78817 12.4707 6.90087C11.8251 8.21738 11.9582 9.59547 12.1967 12.0638C12.2308 12.4164 12.267 12.7913 12.3034 13.1914H52.7699C52.793 12.8989 52.8177 12.6103 52.8419 12.3262C53.0314 10.1055 53.1965 8.17053 52.4212 6.96274Z" fill="#8047F8"/>
<path fill-rule="evenodd" clip-rule="evenodd" d="M15.4548 15.6395C16.0868 24.3375 16.7119 33.0454 17.337 41.7535L17.3374 41.7589C17.6768 46.487 18.0163 51.2153 18.3568 55.942H19.648C19.736 56.6819 19.8366 57.5953 19.9428 58.5583C20.1582 60.5132 20.3963 62.6729 20.5964 64H20.7392C22.0544 63.5107 31.1464 59.5589 31.1505 43.8258C31.1488 43.7809 31.1503 43.7361 31.1549 43.6915H28.9086C28.7999 43.6905 28.6945 43.6536 28.6086 43.5865C28.5228 43.5193 28.4612 43.4257 28.4335 43.32C28.2146 42.7702 28.0381 42.2042 27.9056 41.6272C26.5841 42.3861 25.5348 43.545 24.907 44.9386C24.3111 43.5113 24.2331 41.9189 24.6866 40.4396C25.1402 38.9603 26.0964 37.6883 27.3882 36.8458C27.4049 32.2549 29.0953 27.8293 32.1395 24.4069L32.187 24.3644C32.2754 24.2866 32.3887 24.2434 32.5062 24.2424C32.5742 24.243 32.6412 24.2577 32.7032 24.2857C32.766 24.3141 32.8221 24.3554 32.868 24.4069C35.9478 27.834 37.6292 32.3021 37.577 36.9201C38.8929 37.7392 39.8686 39.0102 40.323 40.4975C40.7773 41.9848 40.6795 43.5873 40.0476 45.0076C39.4233 43.6117 38.373 42.4519 37.0491 41.6962C36.9682 42.2554 36.8193 42.8026 36.6056 43.3253C36.5317 43.5482 36.3839 43.6915 36.2361 43.6915H33.8406C33.8444 43.7182 33.847 43.745 33.8486 43.7719L33.8495 43.7781V43.7911C33.8504 43.8142 33.8504 43.8375 33.8496 43.8607C33.8824 60.0454 43.5492 63.7191 44.364 64H44.6427C44.7139 62.7253 44.9455 60.9662 45.1713 59.2514C45.3269 58.0696 45.4798 56.9088 45.5754 55.942H46.8816C47.2996 49.9882 47.7296 44.0511 48.1596 38.1139L48.1598 38.1107L48.1599 38.1089C48.7099 30.5145 49.26 22.9199 49.785 15.2899H15.5384C15.4399 15.3095 15.4466 15.4735 15.4548 15.6395ZM32.5062 24.2424L32.5037 24.2424H32.509L32.5062 24.2424Z" fill="#8047F8"/>
</g>
</svg>
