<svg width="125" height="40" viewBox="0 0 125 40" fill="none" xmlns="http://www.w3.org/2000/svg">
<path d="M59.5664 8.90122C59.5664 8.3311 59.7528 7.85966 60.1365 7.48689C60.5203 7.11412 61.0465 6.92773 61.7044 6.92773C62.3512 6.92773 62.8775 7.11412 63.2612 7.48689C63.6449 7.85966 63.8423 8.3311 63.8423 8.90122C63.8423 9.4823 63.6449 9.95375 63.2503 10.3265C62.8556 10.6993 62.3403 10.8857 61.6934 10.8857C61.0465 10.8857 60.5312 10.6993 60.1365 10.3265C59.7638 9.96471 59.5664 9.4823 59.5664 8.90122ZM63.623 26.8928H59.7966V12.596H63.623V26.8928Z" fill="white"></path>
<path d="M65.8047 19.6452C65.8047 17.4524 66.331 15.6872 67.3725 14.3496C68.4141 13.0121 69.8174 12.3433 71.5936 12.3433C73.1614 12.3433 74.3784 12.8805 75.2555 13.9549L75.409 12.6064H78.8736V26.4208C78.8736 27.6707 78.5885 28.7561 78.0184 29.688C77.4483 30.609 76.6479 31.3216 75.6173 31.804C74.5867 32.2864 73.3807 32.5276 71.9992 32.5276C70.9467 32.5276 69.9271 32.3193 68.9403 31.9027C67.9426 31.4861 67.1971 30.9489 66.6818 30.2801L68.3702 27.9557C69.3241 29.0192 70.4753 29.5565 71.8348 29.5565C72.8435 29.5565 73.6329 29.2824 74.203 28.7451C74.7621 28.2079 75.0472 27.4404 75.0472 26.4427V25.6753C74.1701 26.673 73.0079 27.1663 71.5717 27.1663C69.8503 27.1663 68.4689 26.4975 67.4054 25.149C66.3419 23.8114 65.8157 22.0243 65.8157 19.8096V19.6452H65.8047ZM69.6201 19.9193C69.6201 21.213 69.8832 22.2326 70.3985 22.9672C70.9138 23.7018 71.6265 24.0746 72.5365 24.0746C73.6986 24.0746 74.5319 23.636 75.0362 22.7699V16.7507C74.5209 15.8736 73.6986 15.446 72.5694 15.446C71.6484 15.446 70.9358 15.8188 70.4095 16.5753C69.8832 17.3099 69.6201 18.4391 69.6201 19.9193Z" fill="white"></path>
<path d="M84.9043 12.5956L85.0249 14.2512C86.0445 12.9794 87.415 12.3325 89.1363 12.3325C90.6493 12.3325 91.7786 12.782 92.5132 13.6701C93.2477 14.5582 93.6315 15.8848 93.6534 17.6609V26.8925H89.838V17.7486C89.838 16.9373 89.6626 16.3562 89.3118 15.9835C88.9609 15.6217 88.3689 15.4353 87.5576 15.4353C86.4831 15.4353 85.6827 15.8958 85.1455 16.8058V26.8815H81.3301V12.5956H84.9043Z" fill="white"></path>
<path d="M96.1084 8.90073C96.1084 8.33061 96.2948 7.85917 96.6785 7.4864C97.0622 7.11363 97.5885 6.92725 98.2463 6.92725C98.8932 6.92725 99.4195 7.11363 99.8032 7.4864C100.187 7.85917 100.384 8.33061 100.384 8.90073C100.384 9.48182 100.187 9.95326 99.7922 10.326C99.3975 10.6988 98.8822 10.8852 98.2354 10.8852C97.5885 10.8852 97.0732 10.6988 96.6785 10.326C96.3057 9.96422 96.1084 9.48182 96.1084 8.90073ZM100.165 26.8924H96.3386V12.5955H100.165V26.8924Z" fill="white"></path>
<path d="M107.479 9.08643V12.5948H109.924V15.3906H107.479V22.5281C107.479 23.0543 107.577 23.4381 107.786 23.6683C107.983 23.8986 108.378 24.0082 108.948 24.0082C109.375 24.0082 109.748 23.9753 110.066 23.9205V26.8149C109.321 27.0452 108.542 27.1548 107.753 27.1548C105.078 27.1548 103.707 25.8063 103.663 23.0982V15.4016H101.58V12.6058H103.663V9.09739H107.479V9.08643Z" fill="white"></path>
<path d="M118.212 27.1553C116.118 27.1553 114.407 26.5085 113.092 25.2257C111.776 23.9429 111.118 22.2326 111.118 20.0837V19.7109C111.118 18.2746 111.392 16.9919 111.951 15.8626C112.511 14.7333 113.289 13.8562 114.309 13.2423C115.328 12.6283 116.49 12.3213 117.784 12.3213C119.736 12.3213 121.282 12.9353 122.4 14.1742C123.518 15.4021 124.088 17.1563 124.088 19.4149V20.9717H114.988C115.109 21.9037 115.482 22.6492 116.107 23.2193C116.732 23.7785 117.51 24.0635 118.464 24.0635C119.933 24.0635 121.084 23.5263 121.907 22.4628L123.781 24.5679C123.211 25.3792 122.433 26.0151 121.457 26.4646C120.492 26.9251 119.407 27.1553 118.212 27.1553ZM117.784 15.4131C117.028 15.4131 116.414 15.6653 115.942 16.1806C115.471 16.6959 115.175 17.4304 115.032 18.3843H120.339V18.0773C120.317 17.2331 120.098 16.5753 119.648 16.1038C119.209 15.6433 118.585 15.4131 117.784 15.4131Z" fill="white"></path>
<path opacity="0.5" d="M39.8215 0.268939L30.0759 36.6581C30.0263 36.8232 29.8281 36.8728 29.7125 36.7572L23.1879 30.2326L28.0772 11.9967C28.1267 11.8315 27.9781 11.6829 27.8129 11.7324L9.57704 16.6217L3.08548 10.1302C2.96985 10.0145 3.0194 9.81633 3.18458 9.76678L39.5572 0.00465167C39.7224 -0.0283843 39.871 0.120278 39.8215 0.268939Z" fill="#00B37E"></path>
<path opacity="0.5" d="M23.1882 30.2329L20.6775 39.6481C20.6279 39.8133 20.4297 39.8629 20.3141 39.7472L0.0630156 19.5127C-0.0526102 19.3971 -0.00305652 19.1989 0.162123 19.1493L9.57737 16.6221L23.1882 30.2329Z" fill="#00B37E"></path>
<path d="M28.0772 11.9966L23.1879 30.2325L9.57715 16.6217L27.813 11.7323C27.9781 11.6828 28.1268 11.8314 28.0772 11.9966Z" fill="#00B37E"></path>
</svg>