<svg width="18" height="18" viewBox="0 0 18 18" fill="none" xmlns="http://www.w3.org/2000/svg">
<path d="M8.96452 1.85957C10.3768 1.85957 11.7573 2.27835 12.9316 3.06296C14.1058 3.84757 15.021 4.96276 15.5615 6.26752C16.1019 7.57227 16.2433 9.00799 15.9678 10.3931C15.6923 11.7782 15.0122 13.0505 14.0136 14.0492C13.015 15.0478 11.7427 15.7278 10.3576 16.0034C8.97244 16.2789 7.53673 16.1375 6.23197 15.597C4.92722 15.0566 3.81202 14.1414 3.02742 12.9671C2.24281 11.7929 1.82403 10.4123 1.82403 9.00006C1.83134 7.10854 2.58599 5.29657 3.92351 3.95905C5.26103 2.62153 7.073 1.86688 8.96452 1.85957ZM8.96452 0.272793C7.23997 0.279848 5.55616 0.797684 4.12568 1.76093C2.69519 2.72417 1.58215 4.08964 0.927075 5.68495C0.272 7.28026 0.104256 9.03389 0.445021 10.7245C0.785786 12.415 1.61978 13.9667 2.84172 15.1837C4.06366 16.4006 5.61876 17.2283 7.31071 17.5622C9.00265 17.896 10.7556 17.7211 12.3482 17.0595C13.9408 16.398 15.3017 15.2794 16.2591 13.8449C17.2165 12.4105 17.7275 10.7246 17.7275 9.00006C17.7275 7.85097 17.5006 6.71319 17.0598 5.65202C16.619 4.59084 15.9729 3.62716 15.1587 2.81629C14.3445 2.00542 13.3782 1.36332 12.3153 0.926842C11.2523 0.490361 10.1136 0.268093 8.96452 0.272793Z" fill="#4EA8DE"/>
</svg>
